#!OML:ASF H:\Pregnant\Project 1\Capture day 1\Session 1\femalepreg.ASF
:FULLY-SPECIFIED
:DEGREES
2558
root 5.75704 14.8639 23.5916 -161.753 -79.2172 180.797
lowerback -13.3628 1.98737 -3.79867
upperback -5.56232 2.825 -0.432477
thorax 1.46263 1.33541 2.08393
lowerneck -23.0565 1.98949 2.67711
upperneck 30.2122 1.26839 0.312548
head 14.2434 0.740506 -0.134183
rclavicle -7.93896e-015 3.97569e-016
rhumerus -42.1029 13.1384 -74.1561
rradius 40.6157
rwrist -4.02312
rhand -16.1005 -18.667
rfingers 7.12502
rthumb 10.1032 -48.4044
lclavicle -7.93896e-015 3.97569e-016
lhumerus -41.5174 -7.10103 71.8458
lradius 30.4856
lwrist 33.4751
lhand -26.5866 -355.745
lfingers 7.12502
lthumb -0.0208262 34.2346
rfemur -42.4325 20.3005 10.1003
rtibia 52.5245
rfoot -26.0736 -16.084
rtoes -9.96997
lfemur -46.6432 -24.6753 -9.14243
ltibia 38.4072
lfoot -7.37817 -34.1288
ltoes 18.4182
2559
root 5.77475 14.8677 23.5457 -161.623 -79.5316 180.626
lowerback -13.42 2.09588 -3.71846
upperback -5.58484 2.95979 -0.429623
thorax 1.4658 1.40159 2.06216
lowerneck -23.121 1.87482 2.53276
upperneck 30.2605 1.15423 0.32473
head 14.2749 0.677335 -0.125416
rclavicle 1.02809e-014 -1.19271e-014
rhumerus -41.537 12.8443 -73.8
rradius 40.2566
rwrist -4.13881
rhand -16.4779 -18.7603
rfingers 7.12502
rthumb 9.73913 -48.5152
lclavicle 1.02809e-014 -1.19271e-014
lhumerus -41.6461 -6.13065 70.9351
lradius 30.5953
lwrist 34.4229
lhand -27.188 -355.444
lfingers 7.12502
lthumb -0.601667 34.5352
rfemur -42.2668 20.18 10.3569
rtibia 52.4437
rfoot -26.0834 -16.2434
rtoes -9.9936
lfemur -46.6363 -24.7684 -8.92477
ltibia 38.2604
lfoot -7.23945 -34.252
ltoes 18.4002
2560
root 5.79384 14.8711 23.5006 -161.586 -79.8375 180.562
lowerback -13.4749 2.20686 -3.60147
upperback -5.60581 3.09316 -0.421851
thorax 1.47161 1.46659 2.02482
lowerneck -23.1728 1.76616 2.39944
upperneck 30.2756 1.04944 0.328987
head 14.2896 0.618666 -0.120073
rclavicle -1.81391e-015 5.26779e-015
rhumerus -40.9436 12.5292 -73.4501
rradius 39.8691
rwrist -4.25085
rhand -16.8122 -18.8486
rfingers 7.12502
rthumb 9.41655 -48.6182
lclavicle -1.81391e-015 5.26779e-015
lhumerus -41.7727 -5.12647 70.0282
lradius 30.7124
lwrist 35.3111
lhand -27.789 -355.145
lfingers 7.12502
lthumb -1.18211 34.8316
rfemur -42.1489 20.0715 10.6256
rtibia 52.3856
rfoot -26.0629 -16.4111
rtoes -10.0323
lfemur -46.6706 -24.8615 -8.67257
ltibia 38.1452
lfoot -7.13562 -34.3446
ltoes 18.3186
2561
root 5.81449 14.8739 23.4566 -161.637 -80.1367 180.6
lowerback -13.5229 2.31175 -3.45223
upperback -5.62556 3.21403 -0.405743
thorax 1.47769 1.52505 1.9763
lowerneck -23.213 1.67653 2.29943
upperneck 30.2609 0.971543 0.303338
head 14.2898 0.571365 -0.127541
rclavicle 1.12872e-014 4.07509e-015
rhumerus -40.3195 12.2219 -73.1273
rradius 39.4575
rwrist -4.3653
rhand -17.1303 -18.9537
rfingers 7.12502
rthumb 9.1096 -48.737
lclavicle 1.12872e-014 4.07509e-015
lhumerus -41.9172 -4.11139 69.139
lradius 30.8469
lwrist 36.1727
lhand -28.3834 -354.842
lfingers 7.12502
lthumb -1.75623 35.1306
rfemur -42.0741 19.9792 10.9014
rtibia 52.349
rfoot -26.0265 -16.5871
rtoes -10.0283
lfemur -46.7481 -24.9633 -8.38661
ltibia 38.0637
lfoot -7.07874 -34.4006
ltoes 18.1697
2562
root 5.83721 14.8754 23.416 -161.737 -80.4461 180.72
lowerback -13.5685 2.41487 -3.2377
upperback -5.65478 3.3235 -0.392644
thorax 1.47803 1.57684 1.88634
lowerneck -23.2495 1.59821 2.21152
upperneck 30.2249 0.911651 0.263631
head 14.2801 0.5314 -0.139363
rclavicle 3.3781e-014 5.76476e-015
rhumerus -39.6777 11.9118 -72.8297
rradius 39.0285
rwrist -4.47392
rhand -17.442 -19.0914
rfingers 7.12502
rthumb 8.80879 -48.8875
lclavicle 3.3781e-014 5.76476e-015
lhumerus -42.0787 -3.10288 68.2721
lradius 30.9916
lwrist 36.9807
lhand -28.9438 -354.531
lfingers 7.12502
lthumb -2.29747 35.436
rfemur -42.0658 19.8668 11.1664
rtibia 52.3295
rfoot -25.9807 -16.7542
rtoes -9.96054
lfemur -46.9124 -25.0887 -8.05805
ltibia 38.0148
lfoot -7.05078 -34.4134
ltoes 17.9588
2563
root 5.86183 14.8759 23.3782 -161.903 -80.7645 180.93
lowerback -13.6009 2.51632 -2.96188
upperback -5.69569 3.42186 -0.386296
thorax 1.46459 1.62222 1.75272
lowerneck -23.2731 1.5333 2.14867
upperneck 30.1675 0.868578 0.206462
head 14.2589 0.499179 -0.159401
rclavicle 1.26648e-014 3.60297e-014
rhumerus -39.0298 11.611 -72.5628
rradius 38.588
rwrist -4.57654
rhand -17.7204 -19.2159
rfingers 7.12502
rthumb 8.54018 -49.0232
lclavicle 1.26648e-014 3.60297e-014
lhumerus -42.26 -2.09348 67.4132
lradius 31.1346
lwrist 37.7061
lhand -29.4675 -354.222
lfingers 7.12502
lthumb -2.80324 35.7393
rfemur -42.1037 19.7647 11.4209
rtibia 52.3171
rfoot -25.9251 -16.9393
rtoes -9.82027
lfemur -47.1434 -25.2396 -7.69119
ltibia 37.9899
lfoot -7.06457 -34.3786
ltoes 17.6388
2564
root 5.88731 14.8768 23.3403 -162.161 -81.0751 181.223
lowerback -13.602 2.62118 -2.66469
upperback -5.74191 3.52116 -0.383855
thorax 1.43126 1.66801 1.60165
lowerneck -23.2871 1.47285 2.08827
upperneck 30.0986 0.830287 0.15307
head 14.2306 0.469888 -0.177417
rclavicle 3.81573e-015 1.56543e-014
rhumerus -38.3938 11.262 -72.3229
rradius 38.1366
rwrist -4.64001
rhand -17.9809 -19.3339
rfingers 7.12502
rthumb 8.28881 -49.1513
lclavicle 3.81573e-015 1.56543e-014
lhumerus -42.4589 -1.08403 66.5568
lradius 31.2638
lwrist 38.3115
lhand -29.9508 -353.907
lfingers 7.12502
lthumb -3.26999 36.048
rfemur -42.1338 19.7518 11.6702
rtibia 52.2982
rfoot -25.8709 -17.1897
rtoes -9.55691
lfemur -47.3709 -25.4027 -7.31035
ltibia 37.9773
lfoot -7.14114 -34.3081
ltoes 17.1923
2565
root 5.91337 14.8782 23.3016 -162.5 -81.3809 181.58
lowerback -13.5659 2.72309 -2.36526
upperback -5.79334 3.61542 -0.376253
thorax 1.37339 1.71163 1.45199
lowerneck -23.2875 1.41816 2.02447
upperneck 30.0219 0.802975 0.09725
head 14.1962 0.444489 -0.193791
rclavicle 1.58977e-014 5.1684e-015
rhumerus -37.773 10.8797 -72.0939
rradius 37.6827
rwrist -4.66694
rhand -18.2177 -19.4437
rfingers 7.12502
rthumb 8.06022 -49.27
lclavicle 1.58977e-014 5.1684e-015
lhumerus -42.6829 -0.0697105 65.7107
lradius 31.3756
lwrist 38.8081
lhand -30.4199 -353.594
lfingers 7.12502
lthumb -3.72298 36.3533
rfemur -42.1396 19.836 11.9147
rtibia 52.2659
rfoot -25.818 -17.5206
rtoes -9.17998
lfemur -47.5746 -25.5768 -6.92731
ltibia 37.9635
lfoot -7.29275 -34.2047
ltoes 16.5664
2566
root 5.93973 14.8806 23.2614 -162.924 -81.683 181.999
lowerback -13.4887 2.81806 -2.07914
upperback -5.85009 3.70147 -0.356127
thorax 1.28725 1.75177 1.31926
lowerneck -23.2702 1.36873 1.95219
upperneck 29.9391 0.789203 0.0350268
head 14.1556 0.422858 -0.208805
rclavicle -7.98408e-014 -1.71591e-014
rhumerus -37.171 10.4704 -71.8666
rradius 37.2304
rwrist -4.65244
rhand -18.4032 -19.5138
rfingers 7.12502
rthumb 7.88115 -49.3469
lclavicle -7.98408e-014 -1.71591e-014
lhumerus -42.9396 0.957186 64.8827
lradius 31.4659
lwrist 39.187
lhand -30.8777 -353.292
lfingers 7.12502
lthumb -4.16505 36.6465
rfemur -42.1072 20.0145 12.1602
rtibia 52.2162
rfoot -25.7698 -17.9293
rtoes -8.69483
lfemur -47.7366 -25.7535 -6.55038
ltibia 37.9384
lfoot -7.50313 -34.0769
ltoes 15.7749
2567
root 5.96706 14.8831 23.2217 -163.289 -82 182.35
lowerback -13.3697 2.89655 -1.79742
upperback -5.91922 3.76564 -0.328862
thorax 1.16633 1.78121 1.19063
lowerneck -23.23 1.33303 1.88604
upperneck 29.8501 0.800902 -0.0496341
head 14.1078 0.409461 -0.229209
rclavicle -2.14812e-014 1.11319e-014
rhumerus -36.5825 10.024 -71.6385
rradius 36.7808
rwrist -4.57251
rhand -18.5453 -19.5552
rfingers 7.12502
rthumb 7.74407 -49.3934
lclavicle -2.14812e-014 1.11319e-014
lhumerus -43.239 1.9881 64.0821
lradius 31.5389
lwrist 39.4729
lhand -31.357 -353.001
lfingers 7.12502
lthumb -4.62785 36.9289
rfemur -42.0615 20.2192 12.3845
rtibia 52.1568
rfoot -25.7269 -18.3775
rtoes -8.12139
lfemur -47.8925 -25.9494 -6.18905
ltibia 37.8965
lfoot -7.74599 -33.9188
ltoes 14.8123
2568
root 5.9955 14.8854 23.1836 -163.589 -82.3479 182.639
lowerback -13.2208 2.95727 -1.50363
upperback -6.00109 3.80481 -0.296417
thorax 1.01769 1.79775 1.05509
lowerneck -23.1682 1.3082 1.81774
upperneck 29.7527 0.835358 -0.151549
head 14.0523 0.403027 -0.251959
rclavicle -8.68906e-015 2.00276e-014
rhumerus -36.0073 9.5447 -71.4098
rradius 36.3407
rwrist -4.43246
rhand -18.6652 -19.5802
rfingers 7.12502
rthumb 7.62828 -49.4227
lclavicle -8.68906e-015 2.00276e-014
lhumerus -43.5778 2.99962 63.3253
lradius 31.6
lwrist 39.6903
lhand -31.8353 -352.722
lfingers 7.12502
lthumb -5.08974 37.1969
rfemur -42.0161 20.3912 12.5945
rtibia 52.0942
rfoot -25.692 -18.8316
rtoes -7.52983
lfemur -48.0692 -26.1753 -5.83058
ltibia 37.8374
lfoot -7.98888 -33.7255
ltoes 13.7235
